<svg xmlns="http://www.w3.org/2000/svg" xmlns:xlink="http://www.w3.org/1999/xlink" width="672" zoomAndPan="magnify" viewBox="0 0 504 518.249968" height="691" preserveAspectRatio="xMidYMid meet" version="1.2"><defs><clipPath id="c6f25888af"><rect x="0" width="191" y="0" height="337"/></clipPath></defs><g id="ac7ceed92c"><g style="fill:#6d6d6d;fill-opacity:1;"><g transform="translate(107.262356, 281.013329)"><path style="stroke:none" d="M 178.90625 -161.566406 C 183.714844 -161.566406 187.605469 -160.625 190.582031 -158.734375 C 192.660156 -157.417969 194.253906 -155.707031 195.359375 -153.605469 C 196.410156 -151.601562 196.9375 -149.394531 196.9375 -146.984375 C 196.9375 -144.980469 196.710938 -143.308594 196.265625 -141.964844 L 188.09375 -144.6875 L 196.34375 -142.210938 C 195.429688 -139.167969 193.929688 -136.6875 191.847656 -134.777344 C 190.554688 -133.597656 188.855469 -132.332031 186.746094 -130.992188 L 186.652344 -130.929688 L 186.554688 -130.871094 C 184.980469 -129.929688 183.714844 -128.929688 182.753906 -127.871094 C 182.089844 -127.140625 181.410156 -125.632812 180.714844 -123.347656 L 172.476562 -125.855469 L 180.773438 -123.539062 L 152.292969 -21.566406 C 149.253906 -10.832031 145.199219 -3.085938 140.140625 1.679688 C 134.578125 6.914062 127.214844 9.53125 118.046875 9.53125 C 109.742188 9.53125 102.746094 7.007812 97.058594 1.964844 C 92.117188 -2.417969 87.632812 -8.894531 83.609375 -17.46875 L 48.945312 -90.46875 L 56.726562 -94.160156 L 65.003906 -91.78125 L 45.710938 -24.71875 L 37.433594 -27.101562 L 45.828125 -25.164062 C 45.515625 -23.808594 45.359375 -22.695312 45.359375 -21.816406 C 45.359375 -21.417969 45.382812 -21.097656 45.433594 -20.855469 C 45.441406 -20.8125 45.449219 -20.785156 45.453125 -20.769531 C 45.441406 -20.808594 45.421875 -20.855469 45.390625 -20.910156 C 45.757812 -20.21875 46.320312 -19.445312 47.085938 -18.582031 L 47.226562 -18.425781 C 50.269531 -14.828125 51.789062 -11.289062 51.789062 -7.808594 C 51.789062 -5.957031 51.566406 -4.359375 51.117188 -3.019531 L 42.945312 -5.742188 L 51.226562 -3.375 C 49.835938 1.496094 46.746094 4.875 41.960938 6.753906 C 38.804688 7.992188 34.542969 8.613281 29.167969 8.613281 L 4.132812 8.613281 C -0.671875 8.613281 -4.5625 7.667969 -7.539062 5.78125 C -9.621094 4.460938 -11.210938 2.75 -12.316406 0.648438 C -13.367188 -1.351562 -13.894531 -3.558594 -13.894531 -5.972656 C -13.894531 -7.976562 -13.671875 -9.648438 -13.222656 -10.992188 L -5.050781 -8.269531 L -13.300781 -10.742188 C -12.386719 -13.789062 -10.890625 -16.265625 -8.804688 -18.175781 C -7.515625 -19.359375 -5.816406 -20.621094 -3.707031 -21.964844 L -3.511719 -22.082031 C -1.941406 -23.027344 -0.675781 -24.027344 0.289062 -25.085938 C 0.949219 -25.8125 1.628906 -27.320312 2.324219 -29.609375 L 31.445312 -132.5625 L 39.730469 -130.21875 L 31.980469 -126.460938 L 28.308594 -134.039062 C 26.199219 -138.25 25.148438 -142.183594 25.148438 -145.835938 C 25.148438 -151.023438 27.027344 -155.074219 30.78125 -157.984375 C 33.863281 -160.371094 37.921875 -161.566406 42.945312 -161.566406 L 76.9375 -161.566406 C 84 -161.566406 89.609375 -159.742188 93.761719 -156.09375 C 97.105469 -153.15625 100.484375 -148.367188 103.890625 -141.730469 L 137.46875 -74.347656 L 129.757812 -70.507812 L 121.480469 -72.878906 L 137.328125 -128.226562 L 145.605469 -125.855469 L 137.183594 -127.660156 C 137.515625 -129.207031 137.683594 -130.367188 137.683594 -131.136719 C 137.683594 -131.539062 137.65625 -131.859375 137.605469 -132.101562 C 137.597656 -132.144531 137.589844 -132.171875 137.585938 -132.183594 C 137.601562 -132.148438 137.621094 -132.101562 137.648438 -132.046875 C 137.285156 -132.734375 136.71875 -133.511719 135.953125 -134.371094 L 135.882812 -134.449219 L 135.816406 -134.53125 C 132.773438 -138.128906 131.253906 -141.664062 131.253906 -145.148438 C 131.253906 -146.996094 131.476562 -148.59375 131.921875 -149.9375 L 140.09375 -147.214844 L 131.8125 -149.578125 C 133.207031 -154.453125 136.292969 -157.828125 141.078125 -159.707031 C 144.234375 -160.949219 148.5 -161.566406 153.875 -161.566406 Z M 178.90625 -144.34375 L 153.875 -144.34375 C 150.675781 -144.34375 148.507812 -144.121094 147.378906 -143.675781 C 147.53125 -143.738281 147.710938 -143.878906 147.914062 -144.097656 C 148.152344 -144.355469 148.304688 -144.605469 148.375 -144.847656 L 148.324219 -144.667969 L 148.265625 -144.488281 C 148.378906 -144.835938 148.453125 -145.140625 148.480469 -145.402344 C 148.480469 -145.371094 148.476562 -145.289062 148.476562 -145.148438 C 148.476562 -145.8125 148.382812 -146.332031 148.199219 -146.703125 C 148.3125 -146.476562 148.566406 -146.128906 148.964844 -145.65625 L 142.390625 -140.09375 L 148.828125 -145.816406 C 150.511719 -143.921875 151.859375 -142.015625 152.875 -140.105469 C 154.230469 -137.542969 154.90625 -134.554688 154.90625 -131.136719 C 154.90625 -129.152344 154.613281 -126.789062 154.027344 -124.050781 L 153.964844 -123.765625 L 131.9375 -46.824219 L 88.566406 -133.863281 C 86.15625 -138.558594 84.097656 -141.65625 82.390625 -143.15625 C 81.488281 -143.945312 79.671875 -144.34375 76.9375 -144.34375 L 42.945312 -144.34375 C 42.144531 -144.34375 41.523438 -144.285156 41.082031 -144.171875 C 41.015625 -144.15625 40.984375 -144.144531 40.980469 -144.144531 C 41.085938 -144.195312 41.203125 -144.269531 41.332031 -144.367188 C 41.738281 -144.683594 42.042969 -145.074219 42.246094 -145.546875 C 42.308594 -145.695312 42.351562 -145.828125 42.375 -145.941406 C 42.375 -145.941406 42.371094 -145.902344 42.371094 -145.835938 C 42.371094 -144.894531 42.851562 -143.46875 43.808594 -141.554688 L 48.910156 -131.027344 L 18.804688 -24.59375 C 17.355469 -19.835938 15.433594 -16.136719 13.03125 -13.5 C 10.933594 -11.1875 8.371094 -9.125 5.351562 -7.3125 L 0.917969 -14.699219 L 5.542969 -7.433594 C 4.285156 -6.632812 3.382812 -5.980469 2.835938 -5.480469 C 3.019531 -5.648438 3.160156 -5.816406 3.257812 -5.980469 L 3.269531 -6 C 3.246094 -5.945312 3.222656 -5.878906 3.195312 -5.792969 L 3.160156 -5.667969 L 3.117188 -5.542969 C 3.242188 -5.921875 3.320312 -6.238281 3.34375 -6.492188 C 3.335938 -6.394531 3.332031 -6.222656 3.332031 -5.972656 C 3.332031 -6.394531 3.195312 -6.859375 2.929688 -7.367188 C 2.609375 -7.976562 2.195312 -8.441406 1.683594 -8.765625 C 1.585938 -8.828125 1.511719 -8.871094 1.457031 -8.890625 C 1.53125 -8.863281 1.644531 -8.832031 1.796875 -8.800781 C 2.386719 -8.675781 3.164062 -8.613281 4.132812 -8.613281 L 29.167969 -8.613281 C 32.367188 -8.613281 34.53125 -8.835938 35.664062 -9.277344 C 35.507812 -9.21875 35.328125 -9.078125 35.125 -8.855469 C 34.886719 -8.597656 34.734375 -8.347656 34.664062 -8.109375 L 34.71875 -8.289062 L 34.777344 -8.464844 C 34.660156 -8.117188 34.589844 -7.8125 34.558594 -7.554688 C 34.5625 -7.582031 34.5625 -7.667969 34.5625 -7.808594 C 34.5625 -7.140625 34.65625 -6.625 34.839844 -6.253906 C 34.726562 -6.480469 34.472656 -6.828125 34.074219 -7.296875 L 40.648438 -12.859375 L 34.214844 -7.140625 C 32.527344 -9.035156 31.179688 -10.9375 30.167969 -12.851562 C 28.8125 -15.414062 28.132812 -18.402344 28.132812 -21.816406 C 28.132812 -24.003906 28.4375 -26.410156 29.042969 -29.035156 L 29.09375 -29.261719 L 54.742188 -118.417969 L 99.203125 -24.789062 C 102.222656 -18.355469 105.316406 -13.734375 108.488281 -10.921875 C 110.914062 -8.769531 114.101562 -7.695312 118.046875 -7.695312 C 122.660156 -7.695312 126.089844 -8.75 128.335938 -10.863281 C 131.082031 -13.453125 133.539062 -18.5625 135.703125 -26.203125 L 164.207031 -128.269531 L 164.238281 -128.363281 C 165.683594 -133.121094 167.609375 -136.816406 170.007812 -139.457031 C 172.109375 -141.765625 174.667969 -143.828125 177.691406 -145.640625 L 182.121094 -138.257812 L 177.5 -145.523438 C 178.757812 -146.324219 179.660156 -146.976562 180.207031 -147.476562 C 180.019531 -147.304688 179.878906 -147.136719 179.785156 -146.972656 L 179.773438 -146.957031 C 179.796875 -147.007812 179.820312 -147.078125 179.84375 -147.164062 L 179.882812 -147.289062 L 179.921875 -147.410156 C 179.796875 -147.035156 179.722656 -146.71875 179.695312 -146.464844 C 179.707031 -146.5625 179.710938 -146.734375 179.710938 -146.984375 C 179.710938 -146.5625 179.84375 -146.097656 180.113281 -145.589844 C 180.433594 -144.980469 180.847656 -144.511719 181.355469 -144.1875 C 181.453125 -144.128906 181.53125 -144.085938 181.582031 -144.066406 C 181.507812 -144.09375 181.398438 -144.125 181.246094 -144.15625 C 180.65625 -144.28125 179.875 -144.34375 178.90625 -144.34375 Z M 178.90625 -144.34375 "/></g></g><g style="fill:#d9d9d9;fill-opacity:1;"><g transform="translate(107.262356, 281.013329)"><path style="stroke:none" d="M 178.90625 -152.953125 C 185.175781 -152.953125 188.3125 -150.960938 188.3125 -146.984375 C 188.3125 -145.910156 188.238281 -145.144531 188.09375 -144.6875 C 187.632812 -143.15625 186.941406 -141.96875 186.015625 -141.125 C 185.097656 -140.28125 183.800781 -139.320312 182.125 -138.25 C 179.820312 -136.875 177.90625 -135.34375 176.375 -133.65625 C 174.84375 -131.976562 173.539062 -129.378906 172.46875 -125.859375 L 144 -23.890625 C 141.394531 -14.703125 138.140625 -8.269531 134.234375 -4.59375 C 130.328125 -0.914062 124.929688 0.921875 118.046875 0.921875 C 111.921875 0.921875 106.828125 -0.875 102.765625 -4.46875 C 98.710938 -8.070312 94.925781 -13.625 91.40625 -21.125 L 56.71875 -94.15625 L 37.4375 -27.09375 C 36.976562 -25.101562 36.75 -23.34375 36.75 -21.8125 C 36.75 -19.820312 37.09375 -18.175781 37.78125 -16.875 C 38.46875 -15.570312 39.425781 -14.234375 40.65625 -12.859375 C 42.332031 -10.867188 43.171875 -9.1875 43.171875 -7.8125 C 43.171875 -6.894531 43.097656 -6.203125 42.953125 -5.734375 C 42.335938 -3.597656 40.957031 -2.109375 38.8125 -1.265625 C 36.664062 -0.421875 33.453125 0 29.171875 0 L 4.140625 0 C -2.140625 0 -5.28125 -1.988281 -5.28125 -5.96875 C -5.28125 -7.039062 -5.203125 -7.804688 -5.046875 -8.265625 C -4.585938 -9.796875 -3.898438 -10.984375 -2.984375 -11.828125 C -2.066406 -12.671875 -0.765625 -13.628906 0.921875 -14.703125 C 3.210938 -16.078125 5.125 -17.601562 6.65625 -19.28125 C 8.1875 -20.96875 9.488281 -23.570312 10.5625 -27.09375 L 39.734375 -130.21875 L 36.0625 -137.796875 C 34.53125 -140.859375 33.765625 -143.535156 33.765625 -145.828125 C 33.765625 -150.578125 36.828125 -152.953125 42.953125 -152.953125 L 76.9375 -152.953125 C 81.832031 -152.953125 85.539062 -151.84375 88.0625 -149.625 C 90.59375 -147.40625 93.3125 -143.460938 96.21875 -137.796875 L 129.75 -70.5 L 145.609375 -125.859375 C 146.066406 -127.992188 146.296875 -129.753906 146.296875 -131.140625 C 146.296875 -133.128906 145.945312 -134.769531 145.25 -136.0625 C 144.5625 -137.363281 143.609375 -138.707031 142.390625 -140.09375 C 140.703125 -142.082031 139.859375 -143.765625 139.859375 -145.140625 C 139.859375 -146.054688 139.9375 -146.742188 140.09375 -147.203125 C 140.707031 -149.347656 142.082031 -150.84375 144.21875 -151.6875 C 146.363281 -152.53125 149.582031 -152.953125 153.875 -152.953125 Z M 178.90625 -152.953125 "/></g></g><g transform="matrix(1,0,0,1,213,135)"><g clip-path="url(#c6f25888af)"><g style="fill:#6d6d6d;fill-opacity:1;"><g transform="translate(13.347969, 236.869443)"><path style="stroke:none" d="M 86.007812 -163.160156 C 95.394531 -163.160156 104.113281 -162.015625 112.167969 -159.726562 C 120.164062 -157.453125 128.238281 -153.90625 136.394531 -149.082031 L 132 -141.660156 L 126.507812 -148.308594 L 131.796875 -152.675781 C 136.125 -156.105469 139.800781 -158.503906 142.824219 -159.867188 C 146.328125 -161.449219 150.234375 -162.242188 154.539062 -162.242188 C 160.132812 -162.242188 164.769531 -160.863281 168.449219 -158.101562 C 172.894531 -154.765625 175.121094 -150.128906 175.121094 -144.1875 C 175.121094 -142.027344 174.742188 -139.816406 173.988281 -137.550781 L 165.804688 -140.28125 L 174.054688 -137.769531 L 164.398438 -106.03125 C 162.910156 -100.933594 160.800781 -97.082031 158.070312 -94.480469 C 154.796875 -91.359375 150.398438 -89.800781 144.878906 -89.800781 C 139.453125 -89.800781 134.683594 -91.484375 130.5625 -94.855469 C 127.609375 -97.273438 123.273438 -101.910156 117.554688 -108.773438 L 124.183594 -114.292969 L 117.691406 -108.613281 C 112.949219 -114.03125 108.804688 -117.769531 105.257812 -119.824219 C 102.226562 -121.578125 99.179688 -122.457031 96.125 -122.457031 C 95.078125 -122.457031 94.238281 -122.152344 93.609375 -121.546875 C 93.066406 -121.015625 92.792969 -120.363281 92.792969 -119.582031 C 92.792969 -118.554688 93.625 -117.328125 95.289062 -115.90625 C 98.617188 -113.0625 103.992188 -109.386719 111.414062 -104.875 C 119.582031 -100.003906 126.382812 -95.574219 131.820312 -91.574219 C 137.878906 -87.121094 143.035156 -81.617188 147.285156 -75.0625 C 151.890625 -67.960938 154.191406 -59.882812 154.191406 -50.824219 C 154.191406 -45.164062 153.289062 -39.53125 151.476562 -33.917969 C 147.195312 -19.636719 138.808594 -8.742188 126.328125 -1.234375 C 114.382812 5.953125 100.558594 9.542969 84.859375 9.542969 C 73.328125 9.542969 63.507812 8.164062 55.402344 5.40625 C 47.285156 2.640625 39.09375 -1.949219 30.820312 -8.363281 L 36.105469 -15.179688 L 41.625 -8.550781 L 33.347656 -1.652344 C 28.957031 2.035156 25.191406 4.613281 22.058594 6.082031 C 18.445312 7.777344 14.464844 8.625 10.117188 8.625 C 4.546875 8.625 -0.0664062 7.132812 -3.722656 4.15625 C -7.910156 0.742188 -10.003906 -3.785156 -10.003906 -9.429688 C -10.003906 -11.972656 -9.523438 -14.566406 -8.566406 -17.207031 L -0.460938 -14.257812 L -8.652344 -16.953125 L 2.617188 -51.21875 C 4.339844 -56.816406 6.980469 -61.015625 10.539062 -63.8125 C 14.25 -66.726562 18.785156 -68.183594 24.144531 -68.183594 C 29.8125 -68.183594 34.875 -66.257812 39.332031 -62.40625 C 42.6875 -59.503906 46.863281 -54.554688 51.859375 -47.554688 C 56.171875 -41.363281 59.96875 -37.191406 63.25 -35.042969 C 66.03125 -33.222656 69.476562 -32.308594 73.589844 -32.308594 C 76.167969 -32.308594 77.894531 -32.566406 78.769531 -33.082031 C 79.085938 -33.265625 79.371094 -33.757812 79.625 -34.5625 L 79.71875 -34.871094 L 79.839844 -35.167969 C 79.726562 -34.886719 79.660156 -34.675781 79.644531 -34.542969 C 79.667969 -34.738281 79.683594 -35.03125 79.683594 -35.414062 C 79.683594 -36.476562 78.910156 -37.679688 77.359375 -39.027344 C 74.242188 -41.738281 69.238281 -45.101562 62.34375 -49.121094 C 54.171875 -54.089844 47.511719 -58.542969 42.359375 -62.488281 C 36.644531 -66.863281 31.710938 -72.320312 27.558594 -78.855469 C 23.0625 -85.9375 20.8125 -94.148438 20.8125 -103.484375 C 20.8125 -109.757812 21.792969 -115.929688 23.761719 -122.007812 C 27.5625 -134.503906 35.328125 -144.542969 47.0625 -152.121094 C 58.453125 -159.480469 71.433594 -163.160156 86.007812 -163.160156 Z M 86.007812 -145.914062 C 74.824219 -145.914062 64.964844 -143.152344 56.421875 -137.636719 C 48.226562 -132.339844 42.808594 -125.359375 40.171875 -116.699219 C 38.761719 -112.347656 38.058594 -107.945312 38.058594 -103.484375 C 38.058594 -97.492188 39.414062 -92.363281 42.121094 -88.101562 C 45.175781 -83.289062 48.75 -79.316406 52.84375 -76.183594 C 57.507812 -72.613281 63.570312 -68.558594 71.035156 -64.019531 C 78.863281 -59.457031 84.742188 -55.460938 88.675781 -52.039062 C 94.179688 -47.257812 96.929688 -41.714844 96.929688 -35.414062 C 96.929688 -32.773438 96.570312 -30.558594 95.855469 -28.761719 L 87.847656 -31.964844 L 96.070312 -29.367188 C 94.484375 -24.34375 91.625 -20.625 87.492188 -18.203125 C 83.925781 -16.109375 79.289062 -15.0625 73.589844 -15.0625 C 66.050781 -15.0625 59.453125 -16.910156 53.804688 -20.609375 C 48.652344 -23.980469 43.328125 -29.621094 37.824219 -37.53125 C 33.625 -43.410156 30.367188 -47.355469 28.046875 -49.359375 C 26.832031 -50.410156 25.53125 -50.9375 24.144531 -50.9375 C 22.761719 -50.9375 21.777344 -50.707031 21.195312 -50.25 C 20.464844 -49.675781 19.730469 -48.203125 19 -45.828125 L 7.691406 -11.4375 L 7.644531 -11.3125 C 7.378906 -10.578125 7.246094 -9.949219 7.246094 -9.429688 C 7.246094 -9.265625 7.253906 -9.136719 7.273438 -9.039062 L 7.261719 -9.058594 C 7.238281 -9.113281 7.207031 -9.164062 7.171875 -9.207031 L 7.171875 -9.214844 C 7.65625 -8.820312 8.636719 -8.625 10.117188 -8.625 C 11.902344 -8.625 13.445312 -8.925781 14.738281 -9.535156 C 16.507812 -10.363281 19.03125 -12.152344 22.304688 -14.902344 L 35.910156 -26.242188 L 41.390625 -21.992188 C 48.140625 -16.757812 54.664062 -13.066406 60.960938 -10.921875 C 67.265625 -8.777344 75.230469 -7.703125 84.859375 -7.703125 C 97.367188 -7.703125 108.226562 -10.472656 117.4375 -16.015625 C 126.109375 -21.230469 131.984375 -28.964844 135.0625 -39.210938 C 136.316406 -43.105469 136.945312 -46.972656 136.945312 -50.824219 C 136.945312 -56.480469 135.566406 -61.429688 132.8125 -65.675781 C 129.707031 -70.46875 125.96875 -74.46875 121.601562 -77.679688 C 116.613281 -81.347656 110.230469 -85.5 102.453125 -90.136719 C 94.242188 -95.128906 88.117188 -99.347656 84.085938 -102.792969 C 78.390625 -107.65625 75.542969 -113.253906 75.542969 -119.582031 C 75.542969 -125.242188 77.570312 -130.027344 81.625 -133.945312 C 85.59375 -137.785156 90.429688 -139.703125 96.125 -139.703125 C 102.269531 -139.703125 108.195312 -138.054688 113.898438 -134.75 C 119.089844 -131.746094 124.679688 -126.820312 130.671875 -119.972656 L 130.742188 -119.894531 L 130.808594 -119.8125 C 135.820312 -113.796875 139.382812 -109.925781 141.484375 -108.203125 C 142.425781 -107.433594 143.558594 -107.050781 144.878906 -107.050781 C 145.597656 -107.050781 146.136719 -107.105469 146.496094 -107.21875 L 146.484375 -107.207031 C 146.382812 -107.148438 146.277344 -107.070312 146.175781 -106.96875 C 146.277344 -107.066406 146.441406 -107.335938 146.667969 -107.777344 C 147.085938 -108.589844 147.496094 -109.679688 147.898438 -111.054688 L 157.589844 -142.898438 L 157.625 -143.007812 C 157.789062 -143.5 157.871094 -143.894531 157.871094 -144.1875 C 157.871094 -144.390625 157.859375 -144.550781 157.835938 -144.671875 L 157.851562 -144.644531 C 157.925781 -144.488281 158.007812 -144.375 158.101562 -144.304688 C 157.488281 -144.761719 156.300781 -144.992188 154.539062 -144.992188 C 152.710938 -144.992188 151.171875 -144.710938 149.921875 -144.148438 C 148.191406 -143.367188 145.8125 -141.777344 142.78125 -139.378906 L 132.820312 -131.152344 L 127.609375 -134.238281 C 120.738281 -138.304688 114.015625 -141.269531 107.449219 -143.136719 C 100.941406 -144.988281 93.792969 -145.914062 86.007812 -145.914062 Z M 86.007812 -145.914062 "/></g></g><g style="fill:#d9d9d9;fill-opacity:1;"><g transform="translate(13.347969, 236.869443)"><path style="stroke:none" d="M 86.015625 -154.53125 C 94.597656 -154.53125 102.53125 -153.492188 109.8125 -151.421875 C 117.09375 -149.359375 124.488281 -146.101562 132 -141.65625 L 137.296875 -146.03125 C 140.972656 -148.945312 144 -150.941406 146.375 -152.015625 C 148.75 -153.085938 151.46875 -153.625 154.53125 -153.625 C 158.21875 -153.625 161.132812 -152.816406 163.28125 -151.203125 C 165.425781 -149.597656 166.5 -147.257812 166.5 -144.1875 C 166.5 -142.957031 166.269531 -141.65625 165.8125 -140.28125 L 156.15625 -108.546875 C 155.070312 -104.867188 153.722656 -102.257812 152.109375 -100.71875 C 150.503906 -99.1875 148.09375 -98.421875 144.875 -98.421875 C 141.507812 -98.421875 138.5625 -99.457031 136.03125 -101.53125 C 133.5 -103.601562 129.550781 -107.859375 124.1875 -114.296875 C 118.820312 -120.429688 113.953125 -124.757812 109.578125 -127.28125 C 105.210938 -129.8125 100.726562 -131.078125 96.125 -131.078125 C 92.75 -131.078125 89.910156 -129.960938 87.609375 -127.734375 C 85.316406 -125.515625 84.171875 -122.796875 84.171875 -119.578125 C 84.171875 -115.898438 86.007812 -112.488281 89.6875 -109.34375 C 93.363281 -106.207031 99.113281 -102.257812 106.9375 -97.5 C 114.90625 -92.75 121.492188 -88.457031 126.703125 -84.625 C 131.921875 -80.789062 136.367188 -76.035156 140.046875 -70.359375 C 143.722656 -64.691406 145.5625 -58.179688 145.5625 -50.828125 C 145.5625 -46.066406 144.796875 -41.3125 143.265625 -36.5625 C 139.585938 -24.300781 132.457031 -14.988281 121.875 -8.625 C 111.300781 -2.257812 98.960938 0.921875 84.859375 0.921875 C 74.273438 0.921875 65.378906 -0.300781 58.171875 -2.75 C 50.972656 -5.207031 43.617188 -9.347656 36.109375 -15.171875 L 27.828125 -8.28125 C 23.992188 -5.0625 20.847656 -2.875 18.390625 -1.71875 C 15.941406 -0.570312 13.1875 0 10.125 0 C 6.59375 0 3.789062 -0.84375 1.71875 -2.53125 C -0.34375 -4.21875 -1.375 -6.515625 -1.375 -9.421875 C -1.375 -10.960938 -1.066406 -12.578125 -0.453125 -14.265625 L 10.8125 -48.515625 C 12.03125 -52.503906 13.710938 -55.34375 15.859375 -57.03125 C 18.015625 -58.71875 20.773438 -59.5625 24.140625 -59.5625 C 27.671875 -59.5625 30.851562 -58.332031 33.6875 -55.875 C 36.519531 -53.425781 40.238281 -48.984375 44.84375 -42.546875 C 49.75 -35.492188 54.304688 -30.585938 58.515625 -27.828125 C 62.734375 -25.066406 67.757812 -23.6875 73.59375 -23.6875 C 77.726562 -23.6875 80.90625 -24.335938 83.125 -25.640625 C 85.351562 -26.941406 86.925781 -29.050781 87.84375 -31.96875 C 88.15625 -32.726562 88.3125 -33.878906 88.3125 -35.421875 C 88.3125 -39.097656 86.546875 -42.46875 83.015625 -45.53125 C 79.492188 -48.601562 74.050781 -52.285156 66.6875 -56.578125 C 58.875 -61.328125 52.515625 -65.578125 47.609375 -69.328125 C 42.703125 -73.085938 38.445312 -77.800781 34.84375 -83.46875 C 31.238281 -89.144531 29.4375 -95.816406 29.4375 -103.484375 C 29.4375 -108.847656 30.28125 -114.140625 31.96875 -119.359375 C 35.1875 -129.929688 41.773438 -138.4375 51.734375 -144.875 C 61.703125 -151.3125 73.128906 -154.53125 86.015625 -154.53125 Z M 86.015625 -154.53125 "/></g></g></g></g></g></svg>